<?xml version="1.0" standalone="no"?>
<!DOCTYPE svg PUBLIC "-//W3C//DTD SVG 20010904//EN"
 "http://www.w3.org/TR/2001/REC-SVG-20010904/DTD/svg10.dtd">
<svg version="1.0" xmlns="http://www.w3.org/2000/svg"
 width="512.000000pt" height="512.000000pt" viewBox="0 0 512.000000 512.000000"
 preserveAspectRatio="xMidYMid meet">
<metadata>
Created by potrace 1.16, written by Peter Selinger 2001-2019
</metadata>
<g transform="translate(0.000000,512.000000) scale(0.100000,-0.100000)"
fill="#000000" stroke="none">
<path d="M3790 3325 l-385 -385 -135 131 c-74 72 -153 139 -175 150 -38 17
-72 19 -596 19 l-555 0 -31 -32 -30 -33 -7 -500 -6 -500 -466 -466 -467 -467
7 -57 c12 -104 57 -173 141 -218 l40 -22 1053 -6 c578 -3 1055 -9 1059 -13 11
-10 -69 -86 -92 -86 -16 0 -17 -2 -5 -10 12 -8 11 -10 -7 -10 -12 0 -28 -6
-35 -13 -7 -7 -40 -19 -73 -26 -32 -7 -68 -18 -80 -24 -45 -23 -54 -26 -101
-32 -45 -6 -72 -14 -114 -35 -29 -14 -117 -29 -285 -50 -93 -12 -179 -25 -190
-30 -20 -9 -104 -23 -228 -40 -37 -5 -75 -11 -85 -14 -10 -3 -67 -10 -127 -15
-106 -9 -307 -30 -485 -51 -170 -19 -450 -41 -665 -50 -121 -6 -257 -15 -303
-20 -45 -5 -145 -12 -222 -16 l-140 -7 0 -97 c0 -62 6 -113 15 -141 19 -54 76
-115 130 -140 38 -18 98 -19 1473 -19 1264 0 1437 2 1469 15 59 25 96 59 128
116 l30 54 2 310 c2 171 3 338 3 372 l0 62 368 3 368 3 60 30 c70 36 117 98
134 178 7 34 10 175 8 395 l-3 342 370 0 c339 0 373 2 411 19 49 22 109 82
123 123 l11 30 -178 -4 c-159 -4 -188 -8 -292 -36 -64 -17 -156 -36 -205 -42
-98 -12 -224 -15 -234 -5 -3 4 -8 398 -11 876 l-5 869 -385 -385z"/>
</g>
</svg>
